<svg xmlns="http://www.w3.org/2000/svg" viewBox="0 0 779.13 779.13"><defs><style>.cls-1{fill:#fff;}</style></defs><g id="Artwork"><path class="cls-1" d="M705.81,365.79V438c0,113.78-60.86,214-151.65,269.73a313.61,313.61,0,0,1-164.57,46.53h0A313.25,313.25,0,0,1,225,707.72C134.19,652,73.33,551.76,73.33,438V365.79c0-83.45,32.77-159.63,86.07-216.27,7.45-7.92,20.4-.43,17.55,10.07a219.56,219.56,0,0,0-7.67,57.67V438a219.16,219.16,0,0,0,19.19,89.9c34.46,76.79,111.66,130.37,201.08,130.37S556.2,604.71,590.66,527.92a219,219,0,0,0,19.2-89.9V217.26a219.8,219.8,0,0,0-7.67-57.71c-2.86-10.49,10.09-18,17.55-10.07C673,206.15,705.81,282.32,705.81,365.79Z"/><path class="cls-1" d="M552.21,97.13c-37-46.71-98.61-72.28-162.66-72.28s-125.89,25.32-162.87,72c-27.26,34.38-38.84,82.51-38.84,129.67V447.32q0,7,.48,14c.6,8.8,12.75,10.83,16.19,2.71,30.26-71.53,103.17-136.13,185-136.13,82.34,0,151.37,61.55,184,135.87,3.78,8.61,16.73,6.32,17.35-3.05q.43-6.63.43-13.36V226.56C591.29,179.4,579.46,131.52,552.21,97.13ZM389.55,280.36a76.85,76.85,0,1,1,76.86-76.82A76.81,76.81,0,0,1,389.55,280.36Z"/></g></svg>
