<?xml version="1.0" encoding="utf-8"?>
<!-- Generator: Adobe Illustrator 25.0.0, SVG Export Plug-In . SVG Version: 6.00 Build 0)  -->
<svg version="1.1" id="Layer_1" xmlns="http://www.w3.org/2000/svg" xmlns:xlink="http://www.w3.org/1999/xlink" x="0px" y="0px"
	 viewBox="0 0 779.1 779.1" style="enable-background:new 0 0 779.1 779.1;" xml:space="preserve">
<style type="text/css">
	.st0{fill:#EF4A24;}
	.st1{fill:#2F1E73;}
</style>
<g id="Artwork">
	<path class="st0" d="M705.8,365.8V438c0,113.8-60.9,214-151.6,269.7c-49.5,30.5-106.5,46.6-164.6,46.5l0,0
		c-58.1,0.1-115.1-16.1-164.6-46.5C134.2,652,73.3,551.8,73.3,438v-72.2c0-83.4,32.8-159.6,86.1-216.3c7.4-7.9,20.4-0.4,17.6,10.1
		c-5.1,18.8-7.7,38.2-7.7,57.7V438c0,31,6.5,61.6,19.2,89.9c34.5,76.8,111.7,130.4,201.1,130.4s166.7-53.6,201.1-130.4
		c12.7-28.3,19.2-58.9,19.2-89.9V217.3c0-19.5-2.6-38.9-7.7-57.7c-2.9-10.5,10.1-18,17.5-10.1C673,206.1,705.8,282.3,705.8,365.8z"
		/>
	<path class="st1" d="M552.2,97.1c-37-46.7-98.6-72.3-162.7-72.3s-125.9,25.3-162.9,72c-27.3,34.4-38.8,82.5-38.8,129.7v220.8
		c0,4.7,0.2,9.3,0.5,14c0.6,8.8,12.8,10.8,16.2,2.7c30.3-71.5,103.2-136.1,185-136.1c82.3,0,151.4,61.5,184,135.9
		c3.8,8.6,16.7,6.3,17.3-3c0.3-4.4,0.4-8.9,0.4-13.4V226.6C591.3,179.4,579.5,131.5,552.2,97.1z M389.5,280.4
		c-42.4,0-76.8-34.4-76.8-76.9s34.4-76.8,76.9-76.8s76.8,34.4,76.8,76.9c0,0,0,0,0,0C466.4,246,432,280.4,389.5,280.4
		C389.6,280.4,389.6,280.4,389.5,280.4z"/>
</g>
</svg>
