<?xml version="1.0" encoding="utf-8"?>
<!-- Generator: Adobe Illustrator 25.0.0, SVG Export Plug-In . SVG Version: 6.00 Build 0)  -->
<svg version="1.1" id="Layer_1" xmlns="http://www.w3.org/2000/svg" xmlns:xlink="http://www.w3.org/1999/xlink" x="0px" y="0px"
	 viewBox="0 0 1616.6 700" style="enable-background:new 0 0 1616.6 700;" xml:space="preserve">
<style type="text/css">
	.st0{fill:#EF4A24;}
	.st1{fill:#2F1E73;}
</style>
<g id="Artwork">
	<path class="st0" d="M346.8,339.2v32.9c-0.2,79.6-64.6,144.1-144.2,144.2l0,0c-26.5,0-52.5-7.3-75.1-21.2
		c-42.9-26.2-69.1-72.8-69.2-123v-32.9c0-36.7,14.1-72,39.3-98.6c1.8-1.9,4.8-1.9,6.7-0.1c1.2,1.2,1.7,3,1.3,4.7
		c-2.3,8.6-3.5,17.4-3.5,26.3v100.7c0,55.5,45,100.5,100.5,100.5s100.5-45,100.5-100.5V271.4c0-8.9-1.2-17.7-3.5-26.3
		c-0.7-2.5,0.8-5.2,3.3-5.9c1.7-0.5,3.5,0,4.7,1.3C332.7,267.2,346.8,302.5,346.8,339.2z"/>
	<path class="st1" d="M691.1,246.7c-11.3,0-18.7,4.1-18.7,12.3c0,29.7,94.5,12.8,94.5,77.4c0,36.6-32.3,55.3-72.2,55.3
		c-23.8-0.2-47.2-6.5-67.8-18.4c-8.8-5.1-12-16.2-7.5-25.3l0.8-1.6c4.8-9.6,16.4-13.5,26-8.7c0.4,0.2,0.7,0.4,1.1,0.6
		c16.1,9.3,34.5,15.2,48,15.2c13.8,0,22.5-5.1,22.5-14.6c0-30.5-94.5-12-94.5-75.6c0-33.6,28.4-54.8,71.7-54.8
		c18.5,0.1,36.9,3.8,54,11c9.8,4.2,14.3,15.5,10.1,25.3c-0.1,0.3-0.2,0.5-0.3,0.8l-1.2,2.6c-4.5,9.4-15.7,13.6-25.2,9.4
		C717.3,251.1,701.8,246.7,691.1,246.7z"/>
	<path class="st1" d="M939.4,227.6L939.4,227.6c0,10.7-8.6,19.4-19.3,19.4c0,0,0,0-0.1,0h-34.4v125.8c0,10.7-8.7,19.3-19.3,19.3
		c0,0,0,0,0,0H858c-10.7,0-19.3-8.6-19.3-19.3c0,0,0,0,0,0V247h-33.9c-10.7,0-19.3-8.7-19.3-19.3c0,0,0,0,0,0l0,0
		c0-10.7,8.7-19.3,19.3-19.3l0,0H920C930.7,208.3,939.4,216.9,939.4,227.6C939.4,227.6,939.4,227.6,939.4,227.6z"/>
	<path class="st1" d="M1015.5,227.6v56.2h72.5v-56.2c0-10.7,8.7-19.3,19.3-19.3c0,0,0,0,0,0h8.2c10.7,0,19.3,8.6,19.3,19.3
		c0,0,0,0,0,0v145.2c0,10.7-8.7,19.3-19.3,19.3c0,0,0,0,0,0h-8.2c-10.7,0-19.3-8.6-19.3-19.3c0,0,0,0,0,0v-51.6h-72.5v51.6
		c0,10.7-8.7,19.3-19.3,19.3l0,0H988c-10.7,0-19.3-8.7-19.3-19.3c0,0,0,0,0,0V227.6c0-10.7,8.7-19.3,19.3-19.3l0,0h8.2
		C1006.8,208.3,1015.5,217,1015.5,227.6z"/>
	<path class="st1" d="M1558.3,300.2c0,53.5-39.2,92-97.3,92h-56.2c-10.7,0-19.3-8.7-19.3-19.3V227.6c0-10.7,8.7-19.3,19.3-19.3h58
		C1519.6,208.3,1558.3,246.9,1558.3,300.2z M1510.4,300.7c0-31-20.2-52-48.7-52h-29.5v103.5h31.8
		C1491.2,352.2,1510.4,331.5,1510.4,300.7z"/>
	<path class="st1" d="M1327.7,237.6c-15.4-19.4-41-30-67.6-30s-52.3,10.5-67.7,29.9c-11.3,14.3-16.1,34.3-16.1,53.9v91.8
		c0,2,0.1,3.9,0.2,5.8c0.1,1.9,1.8,3.4,3.7,3.3c1.3-0.1,2.5-0.9,3-2.1c12.6-29.7,42.9-56.6,76.9-56.6c34.2,0,62.9,25.6,76.4,56.5
		c0.9,1.9,3.1,2.7,5,1.9c1.3-0.6,2.1-1.8,2.2-3.1c0.1-1.8,0.2-3.7,0.2-5.5v-91.8C1343.9,271.8,1339,251.9,1327.7,237.6z
		 M1260.1,313.8c-17.6,0-32-14.3-32-31.9c0-17.6,14.3-32,31.9-32c17.6,0,32,14.3,32,31.9c0,0,0,0,0,0.1
		C1292,299.5,1277.7,313.7,1260.1,313.8z"/>
	<path class="st1" d="M501.3,352.2c20.8,0,35.1-14.1,35.1-37.4v-96c0-5.8,4.7-10.5,10.5-10.5l0,0c20.1,0,36.4,16.3,36.4,36.4l0,0
		v70.2c0,47.4-31.8,77.4-82.2,77.4c-50.7,0-83.2-30-83.2-77.4v-70.2c0-20.1,16.3-36.4,36.4-36.4c0,0,0,0,0,0l0,0
		c5.8,0,10.5,4.7,10.5,10.5v96C464.7,337.9,480,352.2,501.3,352.2z"/>
	<path class="st1" d="M276.7,216.6c-16.9-21.3-45-33-74.2-33s-57.4,11.6-74.3,32.9c-12.4,15.7-17.7,37.6-17.7,59.1v100.7
		c0,2.1,0.1,4.3,0.2,6.4c0.2,2.1,2,3.7,4.2,3.5c1.4-0.1,2.7-1,3.2-2.3c13.8-32.6,47.1-62.1,84.4-62.1c37.6,0,69,28.1,83.9,62
		c0.9,2.1,3.4,3,5.5,2.1c1.4-0.6,2.3-2,2.4-3.5c0.1-2,0.2-4,0.2-6.1V275.6C294.5,254.1,289.1,232.3,276.7,216.6z M202.5,300.2
		c-19.4,0-35-15.7-35-35.1c0-19.4,15.7-35,35.1-35c19.4,0,35,15.7,35,35.1c0,0,0,0,0,0C237.6,284.5,221.9,300.2,202.5,300.2
		C202.6,300.2,202.5,300.2,202.5,300.2z"/>
	<path class="st1" d="M526.3,480.9h-33.4l-5.5,12h-13l28.6-63.8h13.1l28.7,63.9h-13.1L526.3,480.9z M509.6,442.5l-11.9,27.2h23.7
		L509.6,442.5z"/>
	<path class="st1" d="M692.4,484.9c-6.6,6.5-15,9.5-24.3,9.5c-23.7,0-33.8-16.3-33.8-32.9s10.8-33.7,33.8-33.7
		c8.8,0,17.3,3.5,23.5,9.8l-8,7.8c-4.2-3.9-9.7-6.1-15.4-6c-15.4,0-22.1,11.5-22,22.2s6.2,21.6,22,21.6c6,0,11.7-2.4,16.1-6.5
		L692.4,484.9z"/>
	<path class="st1" d="M834,480.9h-33.4l-5.5,12h-13l28.6-63.9h13.1l28.6,63.9h-13.1L834,480.9z M817.3,442.5l-11.8,27.2h23.7
		L817.3,442.5z"/>
	<path class="st1" d="M1005,460.5c0.3,16.1-9.6,32.5-31.9,32.5H948v-63.9h25.1C995,429.1,1004.7,444.7,1005,460.5z M959.9,481.4
		h13.1c14.5,0,20.2-10.6,20-21c-0.3-9.9-6.1-19.9-20-19.9h-13.2L959.9,481.4z"/>
	<path class="st1" d="M1151.9,493h-47.8v-63.9h47.8v11.7H1116v14.7h34.6v11.2H1116v14.4h35.8L1151.9,493z"/>
	<path class="st1" d="M1307.9,446.7l-20.8,27.7h-2.4l-20.3-27.8V493h-12v-63.8h13.9l20,27.5l20-27.5h13.8v63.9h-12L1307.9,446.7z"/>
	<path class="st1" d="M1446.7,455.5l17-26.4h14.5v0.5l-25.4,37V493h-12v-26.4l-24.5-37v-0.5h14.3L1446.7,455.5z"/>
</g>
</svg>
