<?xml version="1.0" encoding="utf-8"?>
<!-- Generator: Adobe Illustrator 25.0.0, SVG Export Plug-In . SVG Version: 6.00 Build 0)  -->
<svg version="1.1" id="Layer_1" xmlns="http://www.w3.org/2000/svg" xmlns:xlink="http://www.w3.org/1999/xlink" x="0px" y="0px"
	 viewBox="0 0 1616.6 700" style="enable-background:new 0 0 1616.6 700;" xml:space="preserve">
<style type="text/css">
	.st0{fill:#2F1E73;}
</style>
<g id="Artwork">
	<path class="st0" d="M417.8,212.8c-14.8,0-24.6,5.4-24.6,16.2c0,39.1,124.3,16.8,124.3,101.8c0,48.2-42.5,72.8-95,72.8
		c-31.3-0.2-62.1-8.5-89.2-24.2c-11.5-6.8-15.8-21.3-9.8-33.2l1-2.1c6.3-12.6,21.6-17.7,34.2-11.4c0.5,0.2,1,0.5,1.4,0.8
		c21.2,12.2,45.3,20,63.1,20c18.2,0,29.6-6.7,29.6-19.2c0-40.1-124.3-15.8-124.3-99.4c0-44.1,37.4-72.1,94.3-72.1
		c24.4,0.1,48.5,5,71,14.4c12.9,5.5,18.8,20.4,13.3,33.3c-0.1,0.3-0.3,0.7-0.5,1l-1.6,3.4c-5.9,12.4-20.6,17.9-33.2,12.4
		C452.3,218.6,431.9,212.8,417.8,212.8z"/>
	<path class="st0" d="M744.3,187.7L744.3,187.7c0,14.1-11.4,25.4-25.4,25.4l0,0h-45.3v165.6c0,14.1-11.4,25.4-25.4,25.4l0,0h-10.8
		c-14.1,0-25.4-11.4-25.4-25.4l0,0V213.2h-44.6c-14.1,0-25.4-11.4-25.4-25.4l0,0l0,0c0-14,11.4-25.4,25.4-25.4h151.6
		C732.9,162.3,744.3,173.7,744.3,187.7z"/>
	<path class="st0" d="M844.3,187.7v73.9h95.4v-73.9c0-14,11.4-25.4,25.4-25.4h10.8c14,0,25.4,11.4,25.4,25.4v191
		c0,14.1-11.4,25.4-25.4,25.4l0,0h-10.8c-14.1,0-25.4-11.4-25.4-25.4l0,0v-67.9h-95.4v67.9c0,14.1-11.4,25.4-25.4,25.4l0,0h-10.8
		c-14.1,0-25.4-11.4-25.4-25.4l0,0v-191c0-14,11.4-25.4,25.4-25.4h10.8C833,162.3,844.3,173.7,844.3,187.7z"/>
	<path class="st0" d="M1558.3,283.2c0,70.4-51.6,121-128,121h-74c-14.1,0-25.4-11.4-25.4-25.4v-191c0-14,11.4-25.4,25.4-25.4h76.3
		C1507.4,162.3,1558.3,213.1,1558.3,283.2z M1495.3,283.9c0-40.8-26.6-68.4-64-68.4h-38.7v136.1h41.8
		C1470,351.6,1495.3,324.3,1495.3,283.9z"/>
	<path class="st0" d="M1255,200.9c-20.2-25.5-53.9-39.5-88.9-39.5s-68.8,13.8-89,39.4c-14.9,18.8-21.2,45.1-21.2,70.9v120.7
		c0,2.6,0.1,5.1,0.3,7.6c0.2,2.5,2.4,4.5,5,4.3c1.7-0.1,3.2-1.2,3.9-2.8c16.5-39.1,56.4-74.4,101.1-74.4c45,0,82.7,33.6,100.6,74.3
		c1.2,2.5,4.2,3.5,6.7,2.3c1.6-0.8,2.6-2.3,2.8-4c0.2-2.4,0.2-4.9,0.2-7.3V271.6C1276.4,245.8,1269.9,219.7,1255,200.9z M1166.1,301
		c-23.2,0-42-18.8-42-42s18.8-42,42-42s42,18.8,42,42S1189.3,301,1166.1,301z"/>
	<path class="st0" d="M168.1,351.6c27.3,0,46.2-18.5,46.2-49.2V176.1c0-7.6,6.2-13.8,13.8-13.8c0,0,0,0,0,0l0,0
		c26.4,0,47.9,21.4,47.9,47.8c0,0,0,0,0,0.1v92.3c0,62.3-41.8,101.8-108.2,101.8c-66.7,0-109.5-39.4-109.5-101.8v-92.3
		c0-26.4,21.4-47.8,47.8-47.8l0,0c7.6,0,13.8,6.2,13.8,13.8c0,0,0,0,0,0v126.3C120,332.7,140.2,351.6,168.1,351.6z"/>
	<path class="st0" d="M201,520.9h-43.9l-7.2,15.8h-17.2l37.7-84h17.3l37.7,84h-17.3L201,520.9z M179,470.4l-15.6,35.8h31.2
		L179,470.4z"/>
	<path class="st0" d="M419.5,526.2c-8.6,8.5-19.8,12.5-31.9,12.5c-31.2,0-44.4-21.5-44.5-43.3s14.2-44.3,44.5-44.3
		c11.6,0,22.7,4.6,30.8,12.8l-10.5,10.2c-5.5-5.2-12.7-8-20.3-7.9c-20.3,0-29,15.1-28.9,29.1s8.2,28.4,28.9,28.4
		c7.9-0.1,15.4-3.1,21.1-8.5L419.5,526.2z"/>
	<path class="st0" d="M605.7,520.9h-43.9l-7.2,15.8h-17.2l37.7-84h17.3l37.7,84h-17.3L605.7,520.9z M583.7,470.4l-15.6,35.8h31.2
		L583.7,470.4z"/>
	<path class="st0" d="M830.6,494c0.4,21.2-12.6,42.7-42,42.7h-33v-84h33C817.4,452.7,830.2,473.2,830.6,494z M771.3,521.5h17.3
		c19.1,0,26.6-13.9,26.3-27.6c-0.4-13.1-8-26.1-26.3-26.1h-17.3V521.5z"/>
	<path class="st0" d="M1023.8,536.7h-62.9v-84h62.9v15.4h-47.2v19.3h45.5v14.8h-45.5v19h47.2V536.7z"/>
	<path class="st0" d="M1229,475.9l-27.4,36.5h-3.1l-26.8-36.6v61.1h-15.8v-84h18.2l26.2,36.2l26.3-36.1h18.1v84H1229V475.9z"/>
	<path class="st0" d="M1411.5,487.4l22.3-34.7h19.1v0.7l-33.5,48.6v34.7h-15.8V502l-32.3-48.6v-0.7h18.8L1411.5,487.4z"/>
</g>
</svg>
