<svg xmlns="http://www.w3.org/2000/svg" viewBox="0 0 1616.59 700"><defs><style>.cls-1{fill:#fff;}</style></defs><g id="Artwork"><path class="cls-1" d="M417.81,212.79c-14.83,0-24.6,5.39-24.6,16.18,0,39.08,124.33,16.84,124.33,101.75,0,48.18-42.46,72.77-95,72.77a181.42,181.42,0,0,1-89.23-24.18,25.38,25.38,0,0,1-9.83-33.21l1-2.11a25.48,25.48,0,0,1,35.6-10.65c21.17,12.19,45.31,20,63.1,20,18.19,0,29.65-6.74,29.65-19.2,0-40.1-124.33-15.84-124.33-99.4,0-44.13,37.4-72.1,94.34-72.1a186.58,186.58,0,0,1,71,14.42,25.35,25.35,0,0,1,12.87,34.28l-1.63,3.43a25.47,25.47,0,0,1-33.18,12.37C452.27,218.57,431.89,212.79,417.81,212.79Z"/><path class="cls-1" d="M744.29,187.74h0a25.44,25.44,0,0,1-25.44,25.44H673.53V378.73a25.44,25.44,0,0,1-25.44,25.44H637.31a25.44,25.44,0,0,1-25.44-25.44V213.18H567.23a25.44,25.44,0,0,1-25.44-25.44h0a25.44,25.44,0,0,1,25.44-25.43H718.85A25.44,25.44,0,0,1,744.29,187.74Z"/><path class="cls-1" d="M844.35,187.74v73.91H939.7V187.74a25.44,25.44,0,0,1,25.44-25.43h10.78a25.44,25.44,0,0,1,25.44,25.43v191a25.44,25.44,0,0,1-25.44,25.44H965.14a25.44,25.44,0,0,1-25.44-25.44V310.84H844.35v67.89a25.44,25.44,0,0,1-25.44,25.44H808.13a25.44,25.44,0,0,1-25.44-25.44v-191a25.44,25.44,0,0,1,25.44-25.43h10.78A25.44,25.44,0,0,1,844.35,187.74Z"/><path class="cls-1" d="M1558.29,283.21c0,70.42-51.55,121-128,121h-74a25.44,25.44,0,0,1-25.44-25.44v-191a25.44,25.44,0,0,1,25.44-25.43h76.31C1507.42,162.31,1558.29,213.13,1558.29,283.21Zm-63,.67c0-40.76-26.62-68.39-64-68.39h-38.74V351.61h41.78C1470,351.61,1495.29,324.32,1495.29,283.88Z"/><path class="cls-1" d="M1255,200.87c-20.21-25.53-53.9-39.51-88.91-39.51s-68.8,13.84-89,39.38c-14.9,18.79-21.23,45.1-21.23,70.87V392.28c0,2.56.09,5.11.26,7.63a4.62,4.62,0,0,0,8.85,1.48c16.54-39.1,56.4-74.41,101.14-74.41,45,0,82.74,33.65,100.56,74.27a5,5,0,0,0,9.48-1.67c.15-2.41.23-4.85.23-7.3V271.61C1276.37,245.84,1269.91,219.66,1255,200.87ZM1166.1,301a42,42,0,1,1,42-42A42,42,0,0,1,1166.1,301Z"/><path class="cls-1" d="M168.13,351.61c27.29,0,46.16-18.53,46.16-49.2V176.12a13.81,13.81,0,0,1,13.82-13.81h0A47.84,47.84,0,0,1,276,210.15v92.26c0,62.34-41.78,101.76-108.16,101.76-66.71,0-109.5-39.42-109.5-101.76V210.15a47.84,47.84,0,0,1,47.84-47.84h0A13.81,13.81,0,0,1,120,176.12V302.41C120,332.74,140.17,351.61,168.13,351.61Z"/><path class="cls-1" d="M201,520.88H157.08l-7.2,15.84H132.72l37.67-84h17.28l37.68,84H208.07Zm-22-50.51-15.59,35.75h31.19Z"/><path class="cls-1" d="M419.49,526.16c-8.63,8.52-19.79,12.48-31.91,12.48-31.2,0-44.39-21.48-44.52-43.32s14.16-44.27,44.52-44.27a43.3,43.3,0,0,1,30.83,12.84l-10.55,10.2a28.86,28.86,0,0,0-20.28-7.92c-20.28,0-29,15.12-28.92,29.15s8.16,28.44,28.92,28.44a30.93,30.93,0,0,0,21.12-8.52Z"/><path class="cls-1" d="M605.72,520.88H561.81l-7.2,15.84H537.45l37.67-84H592.4l37.68,84H612.8Zm-22-50.51-15.59,35.75h31.19Z"/><path class="cls-1" d="M830.58,494c.36,21.24-12.6,42.72-42,42.72h-33v-84h33C817.38,452.73,830.22,473.25,830.58,494Zm-59.27,27.48h17.28c19.07,0,26.63-13.92,26.27-27.6-.36-13.07-8-26.15-26.27-26.15H771.31Z"/><path class="cls-1" d="M1023.76,536.72H960.89v-84h62.87v15.36H976.61V487.4h45.48v14.76H976.61v19h47.15Z"/><path class="cls-1" d="M1229,475.89l-27.36,36.47h-3.12l-26.75-36.59v61.07h-15.84v-84h18.24L1200.39,489l26.28-36.11h18.12v84H1229Z"/><path class="cls-1" d="M1411.46,487.4l22.31-34.67h19.08v.72L1419.37,502v34.68h-15.83V502l-32.28-48.59v-.72h18.84Z"/></g></svg>